<svg id="Layer_1" data-name="Layer 1" xmlns="http://www.w3.org/2000/svg" viewBox="0 0 931.1 208.89"><title>gravemint</title><g id="Layer_1-2" data-name="Layer 1"><path d="M112.4,274.2v26.7h26.8c-1.6,4.7-6.8,10.9-8,12.3-6.6,7.4-15.4,11.7-24.6,11.7s-18-4.3-24.5-11.7a43.33,43.33,0,0,1-10.4-28.4,42.81,42.81,0,0,1,10.4-28.4,31.82,31.82,0,0,1,24.5-11.7,32.81,32.81,0,0,1,21.1,8l17.9-20.3c-10.5-10.3-24.1-16.4-38.9-16.4-33,0-59.8,30.8-59.8,68.9s26.8,68.9,59.8,68.9a54.73,54.73,0,0,0,34.8-12.7v10.7h23.2V274.3H112.4Zm28.9,26.9-.2-.2h.2Z" transform="translate(-46.9 -172.06)"/><path d="M272.2,263.7c0-20.6-12.9-45.6-41.4-45.6H175.2V351.7h27.9V309.2h13.2l24.3,42.5h31.2l-25-45.6C265.2,298.7,272.2,278.7,272.2,263.7ZM243.8,275a15.52,15.52,0,0,1-4.1,3.5,20.14,20.14,0,0,1-9.1,1.9H203.1V246.9h27.7c5.9,0,10,1.6,12.7,5.3,2.9,3.5,3.7,8.2,3.7,11.5A20.7,20.7,0,0,1,243.8,275Z" transform="translate(-46.9 -172.06)"/><path d="M279.3,351.7h32.1l8.4-18.7h43.7l8.4,18.7H404L341.7,218.1Zm51.8-43.8,10.7-23.4,10.5,23.4Z" transform="translate(-46.9 -172.06)"/><polygon points="380.4 112.64 350.1 46.04 317.9 46.04 380.2 179.44 380.2 179.64 380.4 179.44 442.7 46.04 410.6 46.04 380.4 112.64"/><polygon points="449.3 179.64 530.4 179.64 530.4 150.84 477.2 150.84 477.2 127.24 522.3 127.24 522.3 98.44 477.2 98.44 477.2 74.84 530.4 74.84 530.4 46.04 449.3 46.04 449.3 179.64"/><rect x="681.7" y="46.04" width="27.9" height="133.6"/><polygon points="805.4 114.24 728.5 46.04 728.5 179.64 756.3 179.64 756.3 114.44 833.3 179.64 833.3 46.04 805.4 46.04 805.4 114.24"/><polygon points="842.9 46.04 842.9 78.14 873.1 78.14 873.1 179.64 900.9 179.64 900.9 78.14 931.1 78.14 931.1 46.04 842.9 46.04"/><path d="M724,270.1a4.59,4.59,0,0,0-4.7-4.1h-3.6l-1.1-93.9s0-.1-.1,0l-61.9,46.6h-.1L591,172.1h-.1l-1,80.9h-3.2a4.59,4.59,0,0,0-4.7,4.1,4.52,4.52,0,0,0,4.5,4.9h3.3l-.1,8.9H586a4.59,4.59,0,0,0-4.7,4.1,4.52,4.52,0,0,0,4.5,4.9h3.8l-.8,63.1a11.25,11.25,0,0,0,11.3,11.4h0l10.7-1.5a34.84,34.84,0,0,1,10.2.1h0c-.3,6.4-1.4,9.7-6.3,13-1.7,1.2-3.9,1.9-6.3,3h0a6.35,6.35,0,0,0-2.4,6.2c1.9,9.4,15.9,5.5,21.8.8a23.44,23.44,0,0,0,9-16.5s0-.1.1,0a31.48,31.48,0,0,0,16.5,4.4,30.37,30.37,0,0,0,15.7-5,8.34,8.34,0,0,0,1.2-.8,33.87,33.87,0,0,1,23.6-5.4l11.3,1.6h0a11.25,11.25,0,0,0,11.3-11.4l-.6-50h3.2a4.59,4.59,0,0,0,4.7-4.1,4.52,4.52,0,0,0-4.5-4.9h-3.6l-.1-8.9h3.7A4.57,4.57,0,0,0,724,270.1Zm-33.2,73.2h0l-8.3-1.1a26.28,26.28,0,0,0-17.3,3.8,4.05,4.05,0,0,1-.9.5,23.35,23.35,0,0,1-11.5,3.5,24.51,24.51,0,0,1-13.1-3.6,5.58,5.58,0,0,1-.8-.5,25.88,25.88,0,0,0-17.2-3.6l-7.9,1h0c-4.6,0-8.3-1.7-8.3-5.3l5.4-88.1h0c1-34.4,82.9-34.4,83.8.1l4.4,85.2A8.05,8.05,0,0,1,690.8,343.3Z" transform="translate(-46.9 -172.06)"/><path d="M646.8,267.4c.3-5.9-1.7-13.1-6.6-16.5a18.58,18.58,0,0,0-1.9-1.1,16.45,16.45,0,0,0-3.7-1c-2.5-.2-3.8.8-5.5,2a12,12,0,0,0-1.2,1.1c-2.4,2.5-3.7,5.9-4.8,9.3-.3.8-.5,1.5-.8,2.2-2.1,5.5-3.4,12.2,1.1,16.9,3.9,4,10.3,3.4,15,1.4C644.1,279.3,646.6,273.5,646.8,267.4Z" transform="translate(-46.9 -172.06)"/><path d="M677.9,259a8.36,8.36,0,0,0-11.2,3c-2,3.2-2.5,7.8-2.6,11.4,0,2.9.5,5.8,2.5,8.2a11.62,11.62,0,0,0,5.2,2.9c9.4,3,13.5-8.6,12.3-15.8C683.4,265,681.4,260.9,677.9,259Z" transform="translate(-46.9 -172.06)"/><path d="M646.2,276.5a24.19,24.19,0,0,1-3.8,5.1c-1.4,1.3-3.9,2.4-4.3,4.4a2,2,0,0,0,1.3,2.4c2.5.5,4.5-1.9,6.1-3.6a25.49,25.49,0,0,0,4.2-6.1C650.9,276.2,647.5,274.2,646.2,276.5Z" transform="translate(-46.9 -172.06)"/><path d="M670.2,285.6c-2.4-1.3-5.6-2-6.7-5a1.51,1.51,0,0,0-2.9.8c.7,4,4.3,6.9,7.8,8.2C670.9,290.5,672.4,286.8,670.2,285.6Z" transform="translate(-46.9 -172.06)"/></g></svg>